<svg xmlns="http://www.w3.org/2000/svg" width="225.1" height="20.9" viewBox="0 0 225.1 20.9">
  <g id="Trinity_tex" data-name="Trinity tex" transform="translate(112.55 10.45)">
    <g id="Group_19" data-name="Group 19" transform="translate(-112.55 -10.45)">
      <path id="Path_73" data-name="Path 73" d="M44.9,3h0V20.2H43V.5h2.1L56.5,17.7h.1V.5h1.8V20.2H56.3Z" transform="translate(0 0.1)" fill="#fff"/>
      <path id="Path_74" data-name="Path 74" d="M56.9,20.2H55.1L45.7,6l-.1,2.4H44.1V3.9h1.8l9.4,14.3Z" transform="translate(0 0.1)" fill="#92c43e"/>
      <path id="Path_75" data-name="Path 75" d="M44.1,3.9V1.5l1.8,2.4Z" transform="translate(0 0.1)" fill="#92c43e"/>
      <rect id="Rectangle_40" data-name="Rectangle 40" width="1.9" height="19.71" transform="translate(35.8 0.6)" fill="#fff"/>
      <rect id="Rectangle_41" data-name="Rectangle 41" width="1.9" height="12.3" transform="translate(35.8 4.3)" fill="#92c43e"/>
      <path id="Path_76" data-name="Path 76" d="M8.1,20.2V2.1h6.2V.5H0V2.1H6.2V20.2Z" transform="translate(0 0.1)" fill="#fff"/>
      <path id="Path_77" data-name="Path 77" d="M8.1,3.1V17.7H6.2V3.1Z" transform="translate(0 0.1)" fill="#92c43e"/>
      <path id="Path_78" data-name="Path 78" d="M18.9,11.3v9H17V.5h7.7C29,.5,31.4,2,31.4,5.7s-.9,3.8-3.2,4.8c2.3.8,2.5,3.3,2.5,5.3s.3,3.8.8,4.2v.2h-2c-.8-1.3-.6-5-.9-6.5s-2.1-2.4-3.9-2.4Zm5.8-1.6c2.8,0,4.9-1.2,4.9-3.9s-2.3-3.7-4.8-3.7H18.9V9.7Z" transform="translate(0 0.1)" fill="#fff"/>
      <path id="Path_79" data-name="Path 79" d="M29.9,5.8c0-2.6-1.7-3.7-4.7-3.7H19.8l1.3,1.1h4.1c1.7,0,3.3.5,3.3,2.6a2.5,2.5,0,0,1-2.2,2.6h0l1.2.7a3.3,3.3,0,0,0,2.2-3.4Z" transform="translate(0 0.1)" fill="#92c43e"/>
      <rect id="Rectangle_42" data-name="Rectangle 42" width="1.9" height="19.71" transform="translate(63.3 0.6)" fill="#fff"/>
      <path id="Path_80" data-name="Path 80" d="M76.6,20.2V2.1h6.2V.5H68.5V2.1h6.2V20.2Z" transform="translate(0 0.1)" fill="#fff"/>
      <path id="Path_81" data-name="Path 81" d="M76.6,3.1V17.7H74.7V3.1Z" transform="translate(0 0.1)" fill="#92c43e"/>
      <path id="Path_82" data-name="Path 82" d="M97.5.5l-6,9.5L85.7.5H83.6l7,11.3v8.4h1.9V11.6L99.7.5Z" transform="translate(0 0.1)" fill="#fff"/>
      <path id="Path_83" data-name="Path 83" d="M97.5.5l-6,9.5L85.7.5H84.5l6,9.7h2.1L98.8.5Z" transform="translate(0 0.1)" fill="#92c43e"/>
      <path id="Path_84" data-name="Path 84" d="M109.8,20.2V.5h6.7c2.2,0,4.2.1,6.1,1.5s3.3,5.7,3.3,8.4a11.083,11.083,0,0,1-2.4,7.5c-1.8,2-4.4,2.4-7,2.4Zm1.9-1.6h4.5a9.3,9.3,0,0,0,4.6-.9c2.6-1.3,3.3-4.7,3.3-7.4s-.6-6-3.4-7.5a10.1,10.1,0,0,0-4.5-.7h-4.5Z" transform="translate(0 0.1)" fill="#fff"/>
      <path id="Path_85" data-name="Path 85" d="M131.5,18.6V10.8h10.1V9.2H131.5V2.1h11.2V.5H129.6V20.2H143V18.6Z" transform="translate(0 0.1)" fill="#fff"/>
      <rect id="Rectangle_43" data-name="Rectangle 43" width="1.8" height="19.71" transform="translate(128.5 0.6)" fill="#92c43e"/>
      <rect id="Rectangle_44" data-name="Rectangle 44" width="7.4" height="1.59" transform="translate(130.1 9.3)" fill="#92c43e"/>
      <path id="Path_86" data-name="Path 86" d="M147.1,14.3c.3,3.5,2.7,4.8,5.7,4.8s5-1.9,5-4.1c0-6.1-12-2.1-12-9.8,0-2.7,2.3-5.3,6.7-5.3s6.7,2.7,6.6,5.9h-1.8c0-3-2.3-4.3-4.8-4.3s-5.1,2.3-4.8,4.4c.8,5.1,12,1.4,12,9.1,0,3.6-2.7,5.7-7.2,5.7s-7.1-2.1-7.1-6.4Z" transform="translate(0 0.1)" fill="#fff"/>
      <path id="Path_87" data-name="Path 87" d="M158.2,13.4h-1.8a2.7,2.7,0,0,1,.4,1.5c0,1.8-1.2,3.4-4.2,3.4s-4.5-1.1-4.7-4h-1.5c0,3.6,2.5,5.3,6,5.3s6-1.8,6-4.8a4.9,4.9,0,0,0-.2-1.5Z" transform="translate(0 0.1)" fill="#92c43e"/>
      <rect id="Rectangle_45" data-name="Rectangle 45" width="1.9" height="19.71" transform="translate(163.7 0.6)" fill="#fff"/>
      <path id="Path_88" data-name="Path 88" d="M187.5,17.6v2.6h-1.6V16.9c-1.4,2.4-3.5,3.9-7.4,3.9s-8.6-3.5-8.6-10.5S172.8,0,179,0c4.1,0,7.4,2,8.2,6.2h-1.9a6.1,6.1,0,0,0-6.2-4.7c-5.2,0-7.4,3.8-7.4,9.4s2.6,8.2,7.1,8.2a6.5,6.5,0,0,0,5.9-3.5,9.2,9.2,0,0,0,.8-4.1H179V10h8.4v7.6Z" transform="translate(0 0.1)" fill="#fff"/>
      <path id="Path_89" data-name="Path 89" d="M184.9,11.6a7.6,7.6,0,0,1-.7,3.4,5.4,5.4,0,0,1-4.9,2.9c-3.6,0-5.7-2.9-5.9-6.3h-1.5c.4,5.1,3.3,7.6,7.1,7.6s5-1.3,6.1-3.2v2.8h1.3V11.6Z" transform="translate(0 0.1)" fill="#92c43e"/>
      <path id="Path_90" data-name="Path 90" d="M193.8,3h0V20.2h-1.9V.5H194l11.4,17.2h.1V.5h1.8V20.2h-2.1Z" transform="translate(0 0.1)" fill="#fff"/>
      <path id="Path_91" data-name="Path 91" d="M212.5,14.3c.3,3.5,2.7,4.8,5.7,4.8s5-1.9,5-4.1c0-6.1-12-2.1-12-9.8,0-2.7,2.3-5.3,6.7-5.3s6.7,2.7,6.6,5.9h-1.8c0-3-2.3-4.3-4.8-4.3s-5.1,2.3-4.8,4.4c.8,5.1,12,1.4,12,9.1,0,3.6-2.7,5.7-7.2,5.7s-7.1-2.1-7.1-6.4Z" transform="translate(0 0.1)" fill="#fff"/>
      <path id="Path_92" data-name="Path 92" d="M205.8,20.2H204L194.6,6l-.1,2.4H193V3.9h1.8l9.4,14.3Z" transform="translate(0 0.1)" fill="#92c43e"/>
      <path id="Path_93" data-name="Path 93" d="M193,3.9V1.5l1.8,2.4Z" transform="translate(0 0.1)" fill="#92c43e"/>
      <path id="Path_94" data-name="Path 94" d="M223.5,13.4h-1.8a2.7,2.7,0,0,1,.4,1.5c0,1.8-1.2,3.4-4.2,3.4s-4.5-1.1-4.7-4h-1.5c0,3.6,2.5,5.3,6,5.3s6-1.8,6-4.8a4.9,4.9,0,0,0-.2-1.5Z" transform="translate(0 0.1)" fill="#92c43e"/>
      <path id="Path_95" data-name="Path 95" d="M124.2,10.4a9.2,9.2,0,0,1-2,6.3c-1.5,1.7-3.7,2-5.9,2h-1.6V17.3H116a8,8,0,0,0,3.9-.8c2.2-1.1,2.8-4,2.8-6.2s-.5-5.1-2.9-6.3a8.7,8.7,0,0,0-3.8-.6h-1.3V2.1h1.6a8.3,8.3,0,0,1,5.2,1.2c2.2,1.6,2.8,4.8,2.8,7Z" transform="translate(0 0.1)" fill="#92c43e"/>
      <path id="Path_96" data-name="Path 96" d="M119.9,10.4a2,2,0,1,1-2-2A2,2,0,0,1,119.9,10.4Z" transform="translate(0 0.1)" fill="#92c43e"/>
      <rect id="Rectangle_46" data-name="Rectangle 46" width="6.7" height="0.59" transform="translate(116.9 10.2)" fill="#92c43e"/>
      <rect id="Rectangle_47" data-name="Rectangle 47" width="1.9" height="12.3" transform="translate(63.3 4.3)" fill="#92c43e"/>
    </g>
  </g>
</svg>
